<svg id="Light" xmlns="http://www.w3.org/2000/svg" viewBox="0 0 1317.67 638.56"><defs><style>.cls-1,.cls-2,.cls-3,.cls-5{fill:#dee3e0;}.cls-2{font-size:261.52px;font-family:ShadowsIntoLight, Shadows Into Light;}.cls-3{font-size:247.67px;font-family:GloriaHallelujah, Gloria Hallelujah;letter-spacing:-0.01em;}.cls-4{letter-spacing:-0.1em;}.cls-5{font-size:65.51px;font-family:AmaticSC-Bold, Amatic SC;font-weight:700;letter-spacing:0.2em;}</style></defs><path class="cls-1" d="M1316.61,256.71c0-.09-.07-.18-.11-.28a34.51,34.51,0,0,0-2.09-8c-2.92-7.55-7.44-14.5-14.07-19.22a15.43,15.43,0,0,0-6-3.15,20.11,20.11,0,0,0-6.12-1.21,15.94,15.94,0,0,0-5.51.1,15.31,15.31,0,0,0-2.87.09,1.29,1.29,0,0,0-1.26-.57,7.29,7.29,0,0,0-2.25.41,1.72,1.72,0,0,0-1.58-.63,7.05,7.05,0,0,0-4.43,1.76,19.5,19.5,0,0,0-3.4,3.27c-1,1.1-1.94,2.26-2.87,3.47a42.93,42.93,0,0,0-3.63,4.13,32.49,32.49,0,0,0-5.16,8.46,12.74,12.74,0,0,0-1.25,6.1,26.22,26.22,0,0,0,.65,4,30.05,30.05,0,0,0,.49,3.09c1,5,3.95,9.4,7.2,13.18.49.57,1,1.11,1.54,1.63,7.72,10.46,22,16.08,34.59,12.69a23.23,23.23,0,0,0,6.84-1.87c2.71-1.29,5.9-3,7.59-5.55l1-2c.15-.17.31-.34.45-.52a12.66,12.66,0,0,0,2.41-5.92,16.27,16.27,0,0,0,.67-5c.07-.63.13-1.26.15-1.9A12.1,12.1,0,0,0,1316.61,256.71Zm-27.16,10.4a28.11,28.11,0,0,1-5.49-2l.63.28a35,35,0,0,1-4.2-3.14c-.55-.71-1.09-1.42-1.64-2.12l-1.33-1.94a29.69,29.69,0,0,0-1.33-3.55,5.05,5.05,0,0,1-.61-2.67l.5-2q1-1.32,2-2.73a12.64,12.64,0,0,1,2.84-2.2c.11.12.21.25.33.37a1.36,1.36,0,0,0,1.61.49,4.63,4.63,0,0,1,3.06-.63c1,.31,2,.6,3,.85a6,6,0,0,1,2.53,1.12c1.38,1.2,2.71,2.46,4,3.79.6.9,1.19,1.8,1.78,2.71l1.23,2.78a28.84,28.84,0,0,1,1.4,5.8,10.78,10.78,0,0,0-.44,2.45,2.57,2.57,0,0,1-.5,1.68c-1.19.82-1.93,1.51-3.41,1.34C1293.35,267.6,1291.42,267.3,1289.45,267.11Z"/><path class="cls-1" d="M1302.23,294.25a7.89,7.89,0,0,0-1.94.81c-.67.39-1.33.79-2,1.21a5.93,5.93,0,0,0-2.23.58c-.4.18-.79.38-1.19.57a2.17,2.17,0,0,0-1.13,0c-.85.23-3,.92-3,2,0,.11,0,.22,0,.32a3.61,3.61,0,0,0-.62.82v.16l-.28.17a4.18,4.18,0,0,0-2,1.87c-.68,6.94-1.43,14-4.13,20.5-.84,1.84-1.69,3.69-2.54,5.53a43.37,43.37,0,0,1-4.73,7c-.5.49-1,1-1.55,1.42l-.39.31-8.06,5a46.21,46.21,0,0,1-9.35,3.17,55.65,55.65,0,0,1-6.52,1.05l-.69,0c-13.52.7-26.76-2.81-39.29-7.63C1196,333.7,1183,325,1171,315.31a.7.7,0,0,0-1.12.35,4.77,4.77,0,0,0-.06,1.64l-2.52-2c-.55-.23-.9-.06-1,.53a5.69,5.69,0,0,0,.59,2.56c-.37-.31-1.05-.91-1.53-.59-.75.49-.06,1.77.32,2.46l-.43-.34c-1.19-.95-1.93.15-1.52,1.28.21.36.45.69.68,1a1.2,1.2,0,0,0-.18.8c.07.77.87,1.52,1.35,2.07a19,19,0,0,0,2.84,2.69l2.33,1.7a31.89,31.89,0,0,0,2.53,2.92l1.07.7a6.54,6.54,0,0,0,1.76,2.48,154.41,154.41,0,0,0,28.7,14.54,123.86,123.86,0,0,0,17.69,5.05c11.44,2.84,23.56,4,35.12,1.53,1.21-.26,2.39-.58,3.55-.93A46.53,46.53,0,0,0,1281.8,345l.22-.19a48.08,48.08,0,0,0,5.09-4.49c12.28-12.53,16.38-30.44,18.68-47.27C1306.1,290.79,1302.75,293.78,1302.23,294.25Z"/><path class="cls-1" d="M1300.34,380.09c2.13-10.82.36-21.81-2.85-32.38a177.53,177.53,0,0,0-7.2-21.4c-.78-2-2.66,1.33-2.9,1.73l0,0L1287,327a.87.87,0,0,0-1.11-.37,2.82,2.82,0,0,0-1.25,1.8c-.11.24-.23.53-.36.82a2.37,2.37,0,0,0-.66.64,1.09,1.09,0,0,0-.52.2,3.44,3.44,0,0,0-.65,2.8,5.82,5.82,0,0,0-.26,3.58h0c-.26.5-.52,1-.76,1.51a6.57,6.57,0,0,0-.85,2,2.91,2.91,0,0,0-.12.39c-.07.09-.15.18-.22.28a7.55,7.55,0,0,0-1.85,3.23c2,7.56,4.58,15.18,5,23a35.9,35.9,0,0,1-1,12.17,8.63,8.63,0,0,1-1.45,3.46,13.88,13.88,0,0,0-1.52,3,6,6,0,0,1-3.08,2.38,4.42,4.42,0,0,1-2.79,1.2c-1.38-.17-2.75-.36-4.13-.56l-1.9-.69a28.58,28.58,0,0,1-6.62-5.14,55.29,55.29,0,0,1-5.87-7.57,83.35,83.35,0,0,1-6-10.83c-.78-1.79-1.56-3.59-2.35-5.38q-1.42-5.61-2.62-11.27c-.52-2.33-2.82,1.86-3.08,2.34a7.47,7.47,0,0,0-1.41,1.29c-.5.59-1,1.19-1.45,1.81-.64-.27-1.61.44-2.16.87s-1.35,1.21-2,1.85a2.51,2.51,0,0,0-1.54,1.66c-.39.39-.78.78-1.15,1.19a3.22,3.22,0,0,0-1.21,2c.14.45.27.9.4,1.36a4.81,4.81,0,0,0-.36,1.09c1.82,6.24,3.72,12.45,6.92,18.15a79.57,79.57,0,0,0,7,10.66,55.2,55.2,0,0,0,8.19,9.78c6.85,6.38,16.25,10.53,25.45,7.69a18.07,18.07,0,0,0,2.77-.61c6.66-2,11.31-6.8,14.33-12.64a36.53,36.53,0,0,0,4.91-12.21C1300,382.68,1300.18,381.39,1300.34,380.09Z"/><path class="cls-1" d="M1274.78,365.05a25.63,25.63,0,0,0-2.48-8.67,60.45,60.45,0,0,0-7.32-11c-.81-1-1,1.29-1,2a6.84,6.84,0,0,0-.6,1.74c-.08.35-.15.69-.23,1-.42.12-.83.77-1.08,1.46-.85.58-1.61,2.75-1.18,3.26l0,.06a1.68,1.68,0,0,0,.07,1.15c.59.68,1.16,1.37,1.73,2.06a3.92,3.92,0,0,0,.15.59c.95,1.12,1.88,2.21,2.75,3.3.25.37.51.74.75,1.13a17.88,17.88,0,0,1,1.49,3.06c0,.17.05.35.06.53a8.93,8.93,0,0,1,.52,1.41,12.57,12.57,0,0,1,.24,2.42,7.66,7.66,0,0,1-.39,2c-.07.39,0,.61.18.71,0,.2,0,.4-.08.61-.24,1.35.78.84,1.35.17l.27-.37a.54.54,0,0,0,.21.43.32.32,0,0,0,.19,0,17.28,17.28,0,0,1-.22,2.19c-.18,1.14.65,1.1,1.15.35.24-.55.45-1.11.65-1.68,0,.86.11,2.16,1,1.14a3.7,3.7,0,0,0,.53-1.63c.84,0,1-2.1,1.06-3.27,0-.42.06-.83.08-1.06a23.81,23.81,0,0,0,0-4.05C1274.68,365.77,1274.74,365.42,1274.78,365.05Z"/><path class="cls-1" d="M1028.36,109.56q-1.14-4.84-2.46-9.65-3.23-12.73-7.55-25.2a210.08,210.08,0,0,0-11.09-26.26q-2.09-3.93-4.18-7.86a143.24,143.24,0,0,0-9-14.11c-1.12-1.63-2.12,1.26-2.47,2.38l-1.08-1.54c-1.14-1.67-1.88,1.71-2,2.42a.83.83,0,0,0-.6.25,3.52,3.52,0,0,0-.49,1,1.1,1.1,0,0,0-1.07.61,6.43,6.43,0,0,0,.19,4.43l.51.75c0,.19,0,.38,0,.56a3.83,3.83,0,0,0,.38,2.25c-.13.8-.23,1.59-.31,2.39a3.44,3.44,0,0,0,.11,2.11,7.8,7.8,0,0,0-.73,3.61,206.38,206.38,0,0,1,14.7,28.84,261.4,261.4,0,0,1,11.51,35.35,255.55,255.55,0,0,1,6.75,38.55,184.05,184.05,0,0,1,.87,19.36,104.57,104.57,0,0,1-1.72,18.6c0-.23.07-.45.1-.67q-1.65,6.28-3.31,12.56.83,6.48,2.14,12.88-1,6-2,12-1.57-6.66-3.74-13.16a163.69,163.69,0,0,0-7.19-17.89,186.38,186.38,0,0,0-20.83-34A201.48,201.48,0,0,0,955.4,130c-.64-.56-1.3-1.1-1.95-1.65q-3.32-3.42-6.69-6.79c-8.58-8.54-17.75-16.42-27-24.27q-4.69-4-9.41-8.05-10.3-9-19.71-19c-.54-.55-1.36,1-2,2.48l-1.15-1.06c-1.44-1.35-2,1.56-2.17,2.37-.44,0-.75.53-.95,1.11-.56,0-1,.6-1.19,1.05a5.88,5.88,0,0,0,0,3.82l.41.7c0,.23,0,.46,0,.69a3.71,3.71,0,0,0,.34,2.46c-.16.71-.31,1.42-.43,2.15a3.4,3.4,0,0,0,0,2.09,7.93,7.93,0,0,0-.94,3.55L891,106.72l7.66,15.17q3.51,7.69,7,15.37L912,152.8l5.73,15.7q2.55,7.92,5.08,15.83,2.22,8,4.42,16l3.75,16,3,16.12c2.28,15.89,4.41,31.66,4.65,47.75a200.46,200.46,0,0,1-3.58,41.7,138.35,138.35,0,0,1-20,49.69,135.14,135.14,0,0,1-10.63,14.13l-6.09,6.6-6.58,6.21-7.22,5.93a117.22,117.22,0,0,1-11.9,8.12,136.16,136.16,0,0,1-13.06,7.5,250.3,250.3,0,0,1-32.41,14,395.64,395.64,0,0,1-80.59,18.78,608.42,608.42,0,0,1-92.11,4.63q-28.8-.64-57.53-2.69l-19.17-1.39q-18.6-1.55-37.12-4c-2.09-.25,0,2.48,1,3.61a8.42,8.42,0,0,0,.9,2.41c.67,1.33,1.41,2.62,2.19,3.9a3.27,3.27,0,0,0,.07.51,1.55,1.55,0,0,0-.36,1.61c.19.83.81,3,1.92,3.13l.56,0c.21.39.41.79.63,1.17a3.88,3.88,0,0,0,1.68,2c51,4.54,102.41,8.8,153.69,6.5q11-.49,22-1.41a460,460,0,0,0,73.51-11.31,347.47,347.47,0,0,0,58.61-19.86,201.89,201.89,0,0,0,28.27-15.41A147.26,147.26,0,0,0,913,403.27q3-3.22,5.79-6.62,4.53-5.31,8.55-11a152.54,152.54,0,0,0,22.2-48.37,189.52,189.52,0,0,0,6.86-56.1A298.19,298.19,0,0,0,952.79,242a457.79,457.79,0,0,0-10.42-50.45q-1.26-4.92-2.62-9.78A455.44,455.44,0,0,0,922.85,133q-5.62-13.53-12.12-26.64c3,1.3,6,2.66,9,4.07,4.94,4.43,9.91,8.83,14.75,13.38,6.86,6.44,13.53,13.07,19.93,20a259.58,259.58,0,0,1,17.38,20.91,196.41,196.41,0,0,1,22.39,38,174.45,174.45,0,0,1,6.51,17.56c2.77,8.79,4.22,17.72,5.46,26.82.11.8,1,.55,1.41.31a3.68,3.68,0,0,0,1.07-1.06l.69,5c.2,1.44,1.73-.4,1.8-.51.33-.54.64-1.09,1-1.64v0c.24,1.67,1.22,1.73,2,.3a96.29,96.29,0,0,0,5-9.66,102.28,102.28,0,0,0,5.59-13.81c.11-.34.22-.69.34-1,.49-1.44,1-2.89,1.39-4.34l1.43-4.41a156.49,156.49,0,0,0,5-22c.67-3.65,1.23-7.33,1.62-11.05C1037,158.66,1034,133.44,1028.36,109.56Z"/><path class="cls-1" d="M1237,382.3l-.24-.06a13.61,13.61,0,0,0-2.27-1.24q-1.57-.72-3.18-1.38c.32-.67-.57-1.52-1.09-1.93-.8-.63-3.45-2.75-4.62-2.11l-1,.52-.05,0a4,4,0,0,0-2.61-.58c-6.34,3.71-12.59,7.14-19.57,9.54a70.16,70.16,0,0,1-18.18,3.78c-1.11.07-2.22.11-3.32.13a81.38,81.38,0,0,1-22.59-3.84c-19.47-6.12-36.67-17.47-55.17-25.84-13.77-6.24-28.13-10.93-43.27-10.83a68.83,68.83,0,0,0-10,.3,71.18,71.18,0,0,0-31,11.42,110.2,110.2,0,0,0-19.58,16.53c-.24.22-.49.43-.72.66-6.44,6-12,12.9-17.42,19.76-.77,1,.1,1.46,1.12,1.72l-.54.67c-1.36,1.7,2.54,1.66,3,1.67s1.06,0,1.58,0l-1.12,1.43a1,1,0,0,0,.26,1.14,1.91,1.91,0,0,0,1.74.21,11.79,11.79,0,0,0,3-.64,4.59,4.59,0,0,0,2.49-.92l.88-1.11a6,6,0,0,0,1-.14c.54,0,1.09,0,1.63-.05a7.31,7.31,0,0,0,2.39-.22c.43,0,.85.07,1.28.09a5.83,5.83,0,0,0,3.26-.31,164.58,164.58,0,0,1,13.92-14.28,36.3,36.3,0,0,1,5.34-4.3,46.86,46.86,0,0,1,8-5l-.6.34,5.67-3.17,5.12-2.3,4.9-1.75,4.92-1.26,4.77-.82,4.7-.4a82.93,82.93,0,0,1,19.23,1.87,135.08,135.08,0,0,1,19.42,6.13c14.56,5.62,28.53,12.66,43.21,18,14.25,5.15,29.55,9.15,44.82,8.2a105.5,105.5,0,0,0,24.5-4.42c10-3.12,19.61-7.75,28.86-12.66C1241.93,383.62,1237,382.3,1237,382.3Z"/><path class="cls-1" d="M1281.38,213.41c-.19-.46-.4-.91-.6-1.36.48-.13.71-.84.49-1.66-.31-.64-.65-1.27-1-1.89a2.84,2.84,0,0,0-.88-1.61l-.34-.36-.12-.19a30.93,30.93,0,0,0-2.78-3.76l-1.27-1.21a10.7,10.7,0,0,0-2.49-3.76,99.64,99.64,0,0,0-15.93-11.11,111,111,0,0,0-17.88-7.46,266.44,266.44,0,0,0-27-7,369.94,369.94,0,0,0-42.36-6.85,345.73,345.73,0,0,0-35.54-1.72q-10.82,0-21.59,1-11,.69-21.87,2.46l-15.24,3q-4,0-8,.46a58,58,0,0,1-11.91-.65c-2.07-.32-.14,2.48.74,3.66a8.21,8.21,0,0,0,.75,2.52c.61,1.44,1.29,2.85,2,4.24,0,0,0,.09,0,.14-.62.24-.74.92-.6,1.72s.65,3.46,1.76,3.51l.83,0c.18.39.34.78.53,1.16a4.13,4.13,0,0,0,1.61,2.18,51.87,51.87,0,0,0,9.41-.13l.78-.1,1.61-.13a83.94,83.94,0,0,0,10.46-1.88c8.79-1.91,17.57-3.69,26.48-4.89q9.27-1.25,18.53-1.82l.34,0a266.71,266.71,0,0,1,42.29,1.19,340.23,340.23,0,0,1,41.34,7l13.73,3.45a144.69,144.69,0,0,1,19.37,6,81.16,81.16,0,0,1,13.42,7.09,53.66,53.66,0,0,1,7.31,5.43,64.49,64.49,0,0,1,8.35,8.66.7.7,0,0,0,1.14-.27,4.7,4.7,0,0,0,.13-2.14l1.72,1.91c.54.31.9.17,1.09-.42a6.54,6.54,0,0,0-.65-3.39l-.16-.42.27.31C1280.9,215.74,1281.8,215.17,1281.38,213.41Z"/><path class="cls-1" d="M1143.71,231.92a4.61,4.61,0,0,0-.67-1.75c.81-.1.74-1,.41-1.71l-.84-1.63a1.2,1.2,0,0,0,0-1c-1.86-3.95-3.73-7.5-6.92-10.6a38,38,0,0,0-6.78-5.26,27.09,27.09,0,0,0-18.24-3.77l-.45.09a27.15,27.15,0,0,0-9.4,2.62,27.75,27.75,0,0,0-4.29,1.45c-9.22,4-16.27,11.4-22.2,19.31-1.6,2.14,4.39,1,4.33,1l.79-.14c.36,0,.66,0,.77,0l.68-.08a8.61,8.61,0,0,0,2.42.24c.21.7,1.58,1,2.22,1.06s1,.12,1.51.16c.81.77,2.69.91,3.35.17a2.76,2.76,0,0,0,1.37-.48c.46-.65.93-1.3,1.4-1.94l.27-.12c.78-1.1,1.56-2.16,2.37-3.21A30.4,30.4,0,0,1,1103,220a24.6,24.6,0,0,1,5.23-2.42l1.1-.22a20.91,20.91,0,0,1,8.9.43l12.13,7.09a37.27,37.27,0,0,1,4.65,7.56.89.89,0,0,0,1.34.3c.57,1,1.11,2,1.64,3.12.69,1.44,1.84.58,1.89-.58q-.13-1-.36-1.89c.38.64.75,1.28,1.14,1.91a1.36,1.36,0,0,0,1.47.77c.9-.44.36-2.2-.34-3.74a4.23,4.23,0,0,0,1.1.81C1143.83,233.32,1143.75,232.59,1143.71,231.92Z"/><text class="cls-2" transform="translate(0 213.51) scale(1.13 1)">NOVEL</text><text class="cls-3" transform="translate(6.31 412.64) scale(1.05 1)">DOOD<tspan class="cls-4" x="549.78" y="0">LE</tspan></text><text class="cls-5" transform="translate(50.37 485.54) scale(1.27 1)">PRODUCTIONS</text></svg>